<svg width="36" height="36" viewBox="0 0 36 36" fill="none" xmlns="http://www.w3.org/2000/svg">
<g clip-path="url(#clip0_4_2)">
<rect width="36" height="36" rx="4" fill="white"/>
<path d="M11.308 23.144C10.74 23.144 10.228 23.056 9.772 22.88C9.316 22.696 8.928 22.428 8.608 22.076C8.288 21.716 8.04 21.272 7.864 20.744C7.688 20.208 7.6 19.584 7.6 18.872C7.6 18.168 7.688 17.544 7.864 17C8.04 16.448 8.288 15.988 8.608 15.62C8.928 15.244 9.316 14.96 9.772 14.768C10.228 14.576 10.74 14.48 11.308 14.48C12.084 14.48 12.724 14.64 13.228 14.96C13.732 15.272 14.136 15.768 14.44 16.448L12.868 17.264C12.756 16.912 12.58 16.632 12.34 16.424C12.108 16.208 11.764 16.1 11.308 16.1C10.772 16.1 10.34 16.276 10.012 16.628C9.692 16.972 9.532 17.476 9.532 18.14V19.484C9.532 20.148 9.692 20.656 10.012 21.008C10.34 21.352 10.772 21.524 11.308 21.524C11.756 21.524 12.112 21.404 12.376 21.164C12.648 20.916 12.848 20.62 12.976 20.276L14.464 21.14C14.152 21.78 13.74 22.276 13.228 22.628C12.724 22.972 12.084 23.144 11.308 23.144ZM18.4524 23.144C17.7164 23.144 17.0924 23.02 16.5804 22.772C16.0684 22.516 15.6324 22.188 15.2724 21.788L16.4724 20.576C17.0404 21.216 17.7404 21.536 18.5724 21.536C19.0204 21.536 19.3524 21.444 19.5684 21.26C19.7844 21.076 19.8924 20.832 19.8924 20.528C19.8924 20.296 19.8284 20.104 19.7004 19.952C19.5724 19.792 19.3124 19.684 18.9204 19.628L18.0924 19.52C17.2044 19.408 16.5524 19.14 16.1364 18.716C15.7284 18.292 15.5244 17.728 15.5244 17.024C15.5244 16.648 15.5964 16.304 15.7404 15.992C15.8844 15.68 16.0884 15.412 16.3524 15.188C16.6244 14.964 16.9524 14.792 17.3364 14.672C17.7284 14.544 18.1724 14.48 18.6684 14.48C19.3004 14.48 19.8564 14.58 20.3364 14.78C20.8164 14.98 21.2284 15.272 21.5724 15.656L20.3604 16.88C20.1604 16.648 19.9164 16.46 19.6284 16.316C19.3484 16.164 18.9924 16.088 18.5604 16.088C18.1524 16.088 17.8484 16.16 17.6484 16.304C17.4484 16.448 17.3484 16.648 17.3484 16.904C17.3484 17.192 17.4244 17.4 17.5764 17.528C17.7364 17.656 17.9924 17.748 18.3444 17.804L19.1724 17.936C20.0364 18.072 20.6764 18.34 21.0924 18.74C21.5084 19.132 21.7164 19.692 21.7164 20.42C21.7164 20.82 21.6444 21.188 21.5004 21.524C21.3564 21.86 21.1444 22.148 20.8644 22.388C20.5924 22.628 20.2524 22.816 19.8444 22.952C19.4364 23.08 18.9724 23.144 18.4524 23.144ZM25.7766 23.144C25.0406 23.144 24.4166 23.02 23.9046 22.772C23.3926 22.516 22.9566 22.188 22.5966 21.788L23.7966 20.576C24.3646 21.216 25.0646 21.536 25.8966 21.536C26.3446 21.536 26.6766 21.444 26.8926 21.26C27.1086 21.076 27.2166 20.832 27.2166 20.528C27.2166 20.296 27.1526 20.104 27.0246 19.952C26.8966 19.792 26.6366 19.684 26.2446 19.628L25.4166 19.52C24.5286 19.408 23.8766 19.14 23.4606 18.716C23.0526 18.292 22.8486 17.728 22.8486 17.024C22.8486 16.648 22.9206 16.304 23.0646 15.992C23.2086 15.68 23.4126 15.412 23.6766 15.188C23.9486 14.964 24.2766 14.792 24.6606 14.672C25.0526 14.544 25.4966 14.48 25.9926 14.48C26.6246 14.48 27.1806 14.58 27.6606 14.78C28.1406 14.98 28.5526 15.272 28.8966 15.656L27.6846 16.88C27.4846 16.648 27.2406 16.46 26.9526 16.316C26.6726 16.164 26.3166 16.088 25.8846 16.088C25.4766 16.088 25.1726 16.16 24.9726 16.304C24.7726 16.448 24.6726 16.648 24.6726 16.904C24.6726 17.192 24.7486 17.4 24.9006 17.528C25.0606 17.656 25.3166 17.748 25.6686 17.804L26.4966 17.936C27.3606 18.072 28.0006 18.34 28.4166 18.74C28.8326 19.132 29.0406 19.692 29.0406 20.42C29.0406 20.82 28.9686 21.188 28.8246 21.524C28.6806 21.86 28.4686 22.148 28.1886 22.388C27.9166 22.628 27.5766 22.816 27.1686 22.952C26.7606 23.08 26.2966 23.144 25.7766 23.144Z" fill="black"/>
</g>
<defs>
<clipPath id="clip0_4_2">
<rect width="36" height="36" fill="white"/>
</clipPath>
</defs>
</svg>
