<svg width="36" height="36" viewBox="0 0 36 36" fill="none" xmlns="http://www.w3.org/2000/svg">
<g clip-path="url(#clip0_4_5)">
<rect width="36" height="36" rx="4" fill="white"/>
<path d="M16.832 14.624V20.576C16.832 20.96 16.768 21.312 16.64 21.632C16.52 21.944 16.34 22.212 16.1 22.436C15.86 22.652 15.568 22.824 15.224 22.952C14.888 23.072 14.504 23.132 14.072 23.132C13.656 23.132 13.288 23.076 12.968 22.964C12.656 22.852 12.384 22.692 12.152 22.484C11.928 22.276 11.744 22.028 11.6 21.74C11.456 21.452 11.356 21.132 11.3 20.78L13.004 20.444C13.14 21.172 13.488 21.536 14.048 21.536C14.312 21.536 14.536 21.452 14.72 21.284C14.912 21.116 15.008 20.852 15.008 20.492V16.088H12.464V14.624H16.832ZM21.3391 23.144C20.6031 23.144 19.9791 23.02 19.4671 22.772C18.9551 22.516 18.5191 22.188 18.1591 21.788L19.3591 20.576C19.9271 21.216 20.6271 21.536 21.4591 21.536C21.9071 21.536 22.2391 21.444 22.4551 21.26C22.6711 21.076 22.7791 20.832 22.7791 20.528C22.7791 20.296 22.7151 20.104 22.5871 19.952C22.4591 19.792 22.1991 19.684 21.8071 19.628L20.9791 19.52C20.0911 19.408 19.4391 19.14 19.0231 18.716C18.6151 18.292 18.4111 17.728 18.4111 17.024C18.4111 16.648 18.4831 16.304 18.6271 15.992C18.7711 15.68 18.9751 15.412 19.2391 15.188C19.5111 14.964 19.8391 14.792 20.2231 14.672C20.6151 14.544 21.0591 14.48 21.5551 14.48C22.1871 14.48 22.7431 14.58 23.2231 14.78C23.7031 14.98 24.1151 15.272 24.4591 15.656L23.2471 16.88C23.0471 16.648 22.8031 16.46 22.5151 16.316C22.2351 16.164 21.8791 16.088 21.4471 16.088C21.0391 16.088 20.7351 16.16 20.5351 16.304C20.3351 16.448 20.2351 16.648 20.2351 16.904C20.2351 17.192 20.3111 17.4 20.4631 17.528C20.6231 17.656 20.8791 17.748 21.2311 17.804L22.0591 17.936C22.9231 18.072 23.5631 18.34 23.9791 18.74C24.3951 19.132 24.6031 19.692 24.6031 20.42C24.6031 20.82 24.5311 21.188 24.3871 21.524C24.2431 21.86 24.0311 22.148 23.7511 22.388C23.4791 22.628 23.1391 22.816 22.7311 22.952C22.3231 23.08 21.8591 23.144 21.3391 23.144Z" fill="black"/>
</g>
<defs>
<clipPath id="clip0_4_5">
<rect width="36" height="36" fill="white"/>
</clipPath>
</defs>
</svg>
